<?xml version="1.0" standalone="no"?>
<!DOCTYPE svg PUBLIC "-//W3C//DTD SVG 20010904//EN"
 "http://www.w3.org/TR/2001/REC-SVG-20010904/DTD/svg10.dtd">
<svg version="1.0" xmlns="http://www.w3.org/2000/svg"
 width="4000.000000pt" height="4000.000000pt" viewBox="0 0 4000.000000 4000.000000"
 preserveAspectRatio="xMidYMid meet">
<metadata>
Created by potrace 1.14, written by Peter Selinger 2001-2017
</metadata>
<g transform="translate(0.000000,4000.000000) scale(0.100000,-0.100000)"
fill="#000000" stroke="none">
<path d="M16247 36513 c-35 -10 -53 -22 -67 -46 -41 -66 -19 -127 74 -214 68
-64 143 -107 253 -147 163 -58 237 -115 330 -257 67 -102 130 -239 220 -478
79 -210 113 -364 142 -651 10 -95 9 -116 -12 -220 l-22 -115 -37 66 c-117 208
-302 382 -511 478 -332 154 -397 179 -559 217 -131 30 -237 30 -303 -1 -51
-24 -214 -188 -239 -239 -51 -108 52 -206 169 -161 52 19 85 56 85 94 0 18 13
39 38 64 34 33 43 37 90 37 59 0 192 -29 278 -61 114 -43 408 -179 459 -213
104 -68 234 -208 282 -300 l16 -30 -29 19 c-16 10 -45 29 -64 42 -67 45 -182
72 -419 100 l-226 26 -260 -27 c-347 -36 -408 -46 -700 -117 -137 -33 -340
-81 -450 -105 -110 -25 -288 -73 -395 -108 -107 -35 -260 -85 -340 -110 -187
-60 -271 -97 -427 -189 -141 -82 -288 -159 -463 -240 -129 -61 -277 -164 -510
-357 -80 -66 -196 -159 -259 -207 -127 -97 -174 -150 -284 -315 -42 -62 -119
-167 -172 -233 -53 -66 -128 -167 -167 -225 -39 -58 -119 -172 -177 -255 -59
-82 -135 -195 -170 -249 -91 -143 -194 -282 -388 -523 -216 -269 -260 -334
-423 -623 -73 -129 -185 -316 -249 -415 -298 -457 -371 -611 -432 -918 -48
-246 -40 -321 55 -517 33 -69 77 -162 96 -205 19 -44 63 -123 99 -175 134
-197 178 -379 136 -560 -40 -171 -103 -303 -179 -373 -39 -37 -376 -322 -471
-399 -77 -62 -174 -165 -255 -273 -56 -74 -185 -329 -220 -434 -26 -77 -70
-270 -70 -304 0 -18 -17 -37 -68 -75 -149 -111 -316 -315 -406 -497 -91 -183
-159 -426 -178 -630 -8 -98 -7 -149 6 -275 15 -148 18 -159 61 -248 57 -118
120 -216 204 -316 88 -105 257 -341 280 -391 10 -22 21 -59 24 -83 5 -39 -3
-59 -93 -235 -54 -106 -118 -231 -143 -278 -25 -47 -51 -111 -58 -143 -7 -31
-15 -55 -18 -54 -3 2 -35 18 -70 36 -72 38 -169 62 -252 62 l-55 0 18 73 c10
39 24 113 30 162 11 83 9 101 -16 245 -34 184 -64 287 -117 393 -84 171 -249
388 -402 532 -117 110 -195 155 -266 155 -56 0 -125 -30 -142 -62 -9 -15 -16
-85 -20 -198 -6 -148 -11 -188 -34 -260 -14 -47 -41 -146 -59 -221 -38 -154
-71 -221 -228 -471 -104 -165 -227 -324 -352 -455 l-84 -88 -108 -23 c-188
-40 -512 -154 -664 -233 -194 -102 -254 -147 -275 -206 -19 -56 -36 -90 -94
-192 -81 -140 -129 -307 -131 -461 -5 -274 25 -1037 51 -1305 23 -230 160
-1029 195 -1131 29 -87 93 -211 141 -275 82 -108 252 -273 313 -302 76 -37
346 -133 415 -147 l58 -12 -8 -211 c-7 -236 8 -699 30 -902 8 -71 19 -231 25
-355 17 -378 29 -541 65 -900 44 -433 79 -648 215 -1300 70 -341 92 -411 176
-575 45 -88 90 -195 120 -285 57 -176 73 -209 119 -246 19 -16 50 -42 68 -58
47 -41 72 -48 134 -37 64 12 120 3 236 -38 100 -35 123 -39 312 -51 83 -5 193
-18 245 -29 86 -18 145 -21 635 -25 l540 -4 100 -26 c129 -34 154 -36 375 -41
102 -2 219 -8 260 -14 148 -20 249 -14 515 33 220 39 504 78 513 70 2 -1 -6
-48 -17 -105 -26 -124 -26 -183 -3 -229 23 -47 65 -68 156 -80 42 -5 118 -20
169 -32 200 -49 350 -17 405 87 10 19 11 19 20 -6 17 -44 60 -86 110 -107 45
-20 77 -26 256 -52 43 -7 97 -18 120 -26 23 -8 92 -29 154 -45 62 -17 142 -44
178 -61 40 -19 120 -41 212 -60 81 -16 148 -30 149 -31 0 -1 -12 -101 -29
-222 -38 -277 -45 -608 -15 -760 10 -49 22 -151 27 -225 5 -74 15 -205 21
-290 7 -85 14 -284 16 -441 l4 -287 -35 -178 c-19 -99 -46 -237 -60 -309 -14
-71 -48 -200 -76 -285 -28 -85 -69 -240 -91 -343 -45 -207 -57 -248 -119 -387
-23 -52 -69 -172 -101 -267 -33 -95 -86 -232 -120 -305 -33 -73 -93 -230 -134
-348 -40 -118 -96 -273 -125 -345 -29 -71 -78 -198 -111 -282 -129 -337 -378
-889 -464 -1033 -79 -130 -97 -178 -85 -221 5 -17 14 -37 20 -44 8 -10 5 -24
-10 -54 -29 -54 -22 -80 51 -187 75 -110 143 -181 282 -292 106 -84 134 -115
267 -301 62 -88 135 -151 255 -223 57 -34 141 -90 187 -125 63 -48 176 -129
205 -147 10 -6 -25 -364 -57 -586 -28 -196 -44 -348 -51 -485 -5 -110 -19
-274 -31 -365 -19 -151 -21 -224 -25 -853 l-5 -687 115 0 115 0 5 663 c4 595
6 679 25 833 12 94 28 285 36 424 9 139 18 255 20 258 3 3 13 -1 22 -9 10 -8
52 -16 103 -19 79 -5 93 -10 161 -49 41 -24 149 -96 240 -161 187 -132 287
-192 410 -245 183 -79 400 -169 495 -204 224 -85 275 -132 275 -255 0 -59 -36
-111 -151 -216 -121 -112 -148 -140 -224 -240 -31 -41 -85 -104 -119 -140 -34
-36 -84 -92 -112 -125 -27 -33 -94 -107 -150 -165 -55 -58 -140 -159 -187
-225 l-87 -120 452 -3 452 -2 60 42 c121 83 255 203 415 373 212 225 294 335
413 558 39 73 72 134 74 135 1 2 35 -12 76 -32 42 -21 108 -42 158 -51 47 -9
141 -29 210 -45 76 -18 182 -34 270 -40 80 -6 179 -19 220 -30 41 -10 107 -23
145 -29 96 -16 115 -23 317 -108 l177 -75 83 -87 c73 -75 92 -103 151 -221 51
-103 75 -166 100 -262 l32 -128 804 0 804 0 -7 103 c-4 56 -14 170 -22 252 -8
83 -14 199 -14 259 l0 109 38 -7 c20 -4 123 -13 227 -21 127 -10 225 -23 295
-40 88 -22 143 -27 335 -35 146 -6 254 -15 295 -25 45 -11 148 -19 335 -25
149 -5 329 -14 400 -20 226 -21 683 8 855 55 30 8 76 15 101 15 l46 0 80 -173
c44 -94 106 -234 138 -309 l59 -138 353 0 c194 0 353 2 353 4 0 2 -20 48 -44
102 -53 121 -96 244 -96 276 0 20 17 31 113 75 66 31 157 63 222 79 76 18 154
47 255 95 140 66 204 91 415 166 153 53 236 102 431 249 l179 135 7 -48 c3
-26 7 -292 7 -590 l1 -543 113 0 114 0 7 463 c7 469 5 522 -34 912 -5 55 -13
141 -16 191 l-7 91 67 17 c239 60 560 160 641 200 106 52 229 131 302 192 28
24 53 44 56 44 2 0 4 -14 5 -31 1 -46 26 -76 91 -109 33 -16 76 -41 96 -55 43
-29 82 -40 180 -54 73 -11 217 4 469 50 60 10 126 19 145 19 37 0 224 33 711
125 255 49 504 112 705 180 131 45 342 183 452 296 86 88 287 357 327 438 65
129 90 250 105 495 8 129 7 176 -5 245 -41 239 -120 451 -213 568 -38 49 -41
56 -46 135 -3 46 -8 102 -10 126 l-5 43 183 196 c100 108 250 258 334 332 169
152 520 480 718 671 138 134 323 300 495 445 115 96 358 323 485 450 117 117
352 437 416 565 16 32 31 75 35 96 8 53 -48 341 -81 412 -14 30 -67 114 -119
186 -51 72 -115 165 -141 206 -73 114 -129 185 -239 300 -120 125 -249 267
-336 370 -35 41 -112 127 -171 190 -70 76 -153 183 -244 315 -170 248 -217
306 -375 470 -69 72 -154 171 -189 220 -79 111 -124 167 -223 273 -43 45 -80
95 -83 110 -4 15 -9 38 -11 52 -3 14 -15 35 -26 47 -20 22 -20 24 -5 80 26 98
29 147 17 315 -21 296 -41 357 -177 561 -103 155 -145 231 -192 352 -17 44
-48 101 -68 127 -217 271 -254 301 -413 338 -30 7 -69 21 -86 31 -17 10 -86
34 -155 53 -113 31 -347 111 -358 122 -3 2 12 19 34 36 66 55 135 234 135 349
0 199 -74 320 -242 398 -46 22 -131 62 -190 89 l-108 51 0 49 c0 69 51 265 89
339 70 139 319 420 492 554 73 56 146 123 168 152 55 72 106 184 138 302 24
90 27 116 27 255 -1 171 -15 251 -63 376 -34 87 -229 415 -311 524 -58 76
-425 466 -541 575 -149 139 -281 311 -340 441 -77 172 -119 399 -119 641 0
110 15 225 50 390 11 51 20 95 20 98 0 3 16 3 35 -1 76 -14 131 39 115 111
-11 49 -78 118 -137 140 -39 15 -50 16 -85 4 -74 -24 -108 -91 -163 -317 -66
-275 -80 -426 -56 -637 24 -204 56 -330 126 -485 99 -220 192 -345 426 -576
197 -192 441 -451 497 -525 72 -96 261 -420 281 -483 72 -218 48 -501 -58
-668 -18 -28 -84 -91 -168 -161 -77 -63 -176 -154 -221 -202 -111 -117 -249
-290 -295 -371 -71 -125 -137 -359 -137 -486 0 -150 36 -192 250 -295 290
-139 278 -128 286 -253 8 -107 -17 -185 -72 -227 -39 -29 -64 -70 -64 -104 0
-13 -5 -19 -12 -16 -7 2 -83 34 -168 69 -85 36 -195 82 -245 102 -57 23 -129
65 -195 112 -135 97 -192 130 -315 183 -55 24 -181 85 -280 136 -99 52 -233
116 -297 143 -64 27 -143 67 -175 89 -116 78 -182 114 -279 148 -55 20 -118
42 -142 51 l-42 16 43 41 c98 96 167 204 193 302 11 42 11 71 -1 180 -30 269
-76 350 -269 479 -101 67 -143 106 -348 317 -128 132 -249 264 -269 294 -42
61 -51 110 -50 270 1 175 40 314 154 540 116 232 174 300 544 638 294 268 284
261 410 283 48 9 99 22 113 29 53 27 63 111 19 151 -47 42 -225 28 -333 -25
-68 -34 -126 -79 -377 -296 -337 -290 -428 -396 -565 -659 -131 -252 -182
-418 -191 -621 -8 -175 7 -280 51 -370 40 -82 129 -183 403 -462 152 -155 208
-204 294 -261 59 -39 116 -83 128 -98 29 -37 48 -109 61 -237 11 -104 10 -110
-12 -155 -23 -48 -90 -121 -191 -205 l-57 -48 -98 39 c-53 22 -160 59 -237 82
-77 23 -187 61 -245 85 -163 66 -312 111 -465 140 -77 14 -205 44 -285 65 -80
22 -210 51 -290 65 -80 14 -156 28 -169 31 -21 5 -5 24 161 192 200 203 228
243 228 328 0 142 -70 232 -256 326 -60 31 -136 66 -167 78 -55 21 -56 22 -50
53 9 52 42 147 78 225 29 62 37 72 60 72 84 0 128 85 91 174 -45 107 -171 107
-250 -1 -55 -74 -152 -278 -181 -377 -30 -104 -32 -176 -6 -232 22 -49 53 -72
146 -109 94 -37 256 -120 283 -145 13 -13 22 -33 22 -51 0 -25 -28 -58 -190
-219 -164 -164 -195 -199 -219 -253 l-29 -63 -108 -12 c-60 -7 -161 -12 -224
-12 -97 0 -120 -3 -148 -20 -18 -11 -35 -20 -37 -20 -12 0 -90 132 -150 254
-55 111 -80 148 -165 246 -55 63 -131 153 -168 199 -110 138 -141 169 -231
228 -47 31 -122 88 -166 125 -87 74 -175 122 -300 163 -67 23 -93 26 -166 23
-73 -2 -91 -7 -111 -25 -22 -21 -27 -21 -94 -11 l-71 11 -7 66 c-9 97 -7 199
4 288 12 87 62 397 65 400 1 2 89 25 196 52 1633 416 3056 1195 4125 2258 162
161 370 388 462 504 239 300 483 648 624 889 104 177 259 486 341 680 111 262
249 694 310 970 63 281 69 360 31 401 -16 18 -17 26 -6 93 7 40 10 80 6 89 -5
13 5 22 42 38 82 35 215 130 299 214 98 98 137 169 211 382 47 137 54 168 54
233 0 231 -73 539 -178 747 -17 32 -78 118 -135 189 -114 140 -166 182 -312
251 l-80 38 -166 0 -166 0 -72 -37 -71 -36 0 31 c0 18 -12 77 -26 132 -14 55
-41 179 -60 275 -19 96 -46 209 -60 251 -41 127 -264 486 -442 714 -93 119
-230 252 -402 390 -91 72 -202 166 -246 207 -130 121 -223 186 -669 468 -106
67 -231 132 -370 190 -55 23 -154 69 -220 103 -66 33 -194 84 -285 114 -202
67 -272 95 -420 167 l-115 57 65 -6 c36 -4 76 -14 89 -23 53 -38 67 -43 108
-39 52 5 71 20 94 73 19 42 16 73 -10 123 -31 57 -179 93 -476 116 -372 29
-494 44 -544 69 -25 13 -93 40 -151 61 -127 45 -174 68 -282 139 -109 70 -180
105 -308 151 -112 40 -139 54 -295 150 -123 76 -198 115 -292 148 -113 41
-165 71 -260 150 -108 90 -177 141 -312 230 -57 37 -143 98 -192 134 -49 35
-129 87 -177 115 -105 60 -170 108 -256 189 -96 89 -260 286 -269 322 -10 39
-41 73 -72 81 -32 8 -80 77 -165 236 -39 74 -95 167 -123 205 -140 192 -187
270 -226 377 -42 116 -80 254 -75 274 8 30 -21 81 -56 99 -63 32 -146 10 -173
-48 -22 -46 -22 -54 7 -107 13 -25 36 -90 51 -145 56 -207 103 -311 209 -460
31 -44 74 -105 95 -136 22 -31 67 -110 101 -177 34 -67 86 -157 117 -199 l55
-77 -17 -91 c-17 -90 -98 -354 -136 -443 -18 -42 -200 -324 -206 -318 -1 1 2
31 8 67 16 92 4 285 -26 426 -42 199 -71 266 -154 356 -20 21 -39 45 -44 52
-15 28 -137 116 -206 149 -88 42 -156 53 -376 61 -186 6 -239 16 -255 45 -13
25 -13 160 1 236 10 57 93 351 126 444 8 25 58 132 110 238 87 175 95 196 90
235 -7 55 -43 87 -96 87 -65 0 -58 9 -236 -335 -118 -227 -235 -617 -235 -782
0 -69 -1 -73 -28 -87 -41 -21 -96 -81 -128 -140 -37 -67 -46 -195 -19 -277 39
-122 169 -314 273 -407 42 -37 102 -93 135 -124 l59 -57 -4 -128 c-1 -70 -7
-134 -12 -142 -6 -10 -16 -1 -39 35 -92 150 -162 210 -282 245 -87 26 -205
105 -257 173 -111 148 -161 589 -108 946 12 74 27 184 35 244 25 183 61 295
145 446 35 61 22 123 -32 154 -41 25 -81 15 -134 -34 -24 -22 -48 -40 -53 -40
-16 0 -51 -66 -51 -97 0 -45 -111 -259 -174 -335 -62 -75 -344 -377 -451 -483
-39 -38 -118 -103 -175 -143 -58 -39 -133 -96 -167 -125 -395 -334 -548 -439
-893 -609 -214 -105 -353 -180 -535 -288 -244 -145 -370 -213 -590 -320 -250
-121 -528 -267 -659 -347 l-88 -54 -102 36 c-60 22 -159 46 -244 60 -79 13
-198 41 -265 62 -104 32 -136 37 -217 38 -83 0 -110 -5 -213 -38 -135 -44
-193 -86 -223 -162 -15 -41 -15 -46 2 -82 36 -72 113 -81 186 -23 44 36 134
67 219 76 56 7 78 2 303 -61 49 -13 126 -29 170 -35 116 -16 117 -17 61 -49
-114 -63 -458 -275 -504 -309 -27 -20 -100 -83 -162 -140 -63 -56 -168 -139
-233 -185 -103 -71 -151 -116 -340 -313 -281 -292 -438 -467 -497 -552 -75
-108 -381 -639 -423 -735 -49 -111 -207 -573 -240 -702 -60 -237 -68 -305 -77
-680 -10 -387 -8 -432 21 -570 11 -49 24 -126 30 -170 22 -153 61 -266 111
-316 19 -19 20 -29 15 -93 -4 -39 -11 -93 -16 -121 -28 -146 -40 -698 -20
-905 30 -317 60 -514 115 -760 57 -250 75 -316 132 -490 455 -1377 1474 -2562
2918 -3393 745 -428 1627 -757 2550 -952 94 -19 179 -37 190 -40 15 -3 24 -18
33 -50 7 -26 32 -90 57 -143 59 -130 64 -155 71 -383 l7 -196 -49 -6 c-127
-15 -505 -187 -684 -311 l-75 -52 -80 17 c-46 10 -127 18 -191 18 -61 1 -151
4 -201 7 l-90 7 -16 75 c-24 107 -80 198 -187 302 l-88 85 -7 75 c-7 76 9 294
25 336 5 12 18 25 30 29 23 7 50 53 50 85 0 57 -90 140 -151 140 -79 0 -99
-30 -134 -198 -36 -179 -49 -302 -41 -414 9 -139 28 -180 128 -270 121 -109
179 -205 140 -234 -24 -18 -211 -18 -387 1 -91 10 -245 15 -440 15 -214 0
-323 4 -381 14 -44 8 -129 18 -188 22 l-108 7 -54 47 c-59 51 -159 108 -238
134 -27 9 -108 26 -180 37 -139 21 -344 62 -417 83 l-44 13 -17 138 c-20 160
-36 213 -87 292 -72 111 -164 174 -370 254 -98 38 -189 55 -326 64 -81 5 -115
11 -129 23 -93 83 -47 252 137 505 27 37 56 67 64 67 8 0 28 13 44 29 55 55
29 138 -51 162 -87 26 -167 -39 -307 -253 -76 -116 -126 -220 -149 -312 -31
-124 3 -248 94 -345 67 -71 120 -92 266 -102 171 -13 227 -25 346 -75 83 -34
116 -55 152 -92 49 -49 78 -104 78 -146 l0 -25 -36 24 c-52 35 -85 39 -329 40
-194 0 -224 -2 -253 -18 -51 -28 -111 -87 -134 -131 -22 -43 -47 -166 -48
-233 0 -24 -1 -43 -2 -43 -2 0 -25 9 -53 19 -27 10 -94 24 -147 30 -54 6 -140
16 -192 22 -51 5 -113 16 -138 24 -25 7 -81 18 -124 25 -44 6 -122 22 -174 35
-68 16 -137 25 -245 28 -82 3 -199 13 -260 21 -127 16 -429 15 -462 -2 -48
-26 -56 -131 -12 -178 37 -40 80 -47 223 -40 75 3 167 2 213 -4 45 -6 165 -15
265 -20 138 -7 208 -16 283 -35 55 -14 114 -25 130 -25 17 0 71 -9 120 -20 50
-11 160 -24 245 -30 85 -6 176 -18 203 -27 37 -11 55 -12 79 -4 17 6 32 10 33
9 5 -7 -17 -194 -35 -307 -51 -308 -86 -475 -155 -746 -68 -268 -75 -304 -90
-480 -18 -213 -24 -256 -65 -475 -16 -85 -41 -238 -55 -338 -25 -178 -53 -301
-133 -582 l-38 -135 -159 -18 c-88 -10 -275 -39 -415 -63 -284 -49 -367 -54
-565 -29 -66 8 -190 14 -275 13 -142 0 -166 2 -290 32 l-135 33 -534 4 c-490
3 -542 5 -635 24 -61 13 -170 24 -276 29 -152 6 -185 11 -250 34 -41 15 -97
30 -125 34 -45 7 -52 11 -67 44 -22 46 -68 72 -113 64 l-33 -7 -38 118 c-21
66 -70 182 -111 263 -90 177 -99 205 -168 538 -116 556 -168 852 -195 1122
-49 485 -61 633 -75 940 -9 179 -22 381 -30 450 -19 167 -54 1088 -42 1107 4
6 36 2 79 -9 61 -16 123 -19 383 -23 171 -3 339 -7 375 -10 139 -12 312 45
473 158 46 32 77 45 165 64 189 43 258 87 318 205 49 97 40 241 -21 338 -27
43 -103 97 -193 139 -29 14 -51 29 -49 35 8 23 148 131 265 204 192 119 315
267 329 395 10 85 -39 208 -114 288 -48 51 -100 76 -215 103 -125 29 -229 67
-226 81 3 14 72 66 358 272 281 202 346 303 294 455 -22 65 -74 114 -170 160
-81 39 -157 57 -367 89 -91 14 -93 9 38 114 138 111 296 256 335 307 117 156
198 326 222 467 21 126 -16 255 -112 382 l-39 52 21 27 c12 17 21 48 24 81 4
56 12 74 214 464 47 91 81 169 85 197 11 71 -10 199 -42 261 -38 71 -166 253
-289 407 -184 232 -218 303 -234 486 -13 165 -1 309 39 464 75 290 173 472
355 658 39 39 75 72 81 72 15 0 141 -207 171 -281 64 -158 112 -222 187 -254
32 -13 41 -14 71 -1 75 31 84 97 25 182 -17 26 -44 79 -60 120 -39 100 -66
152 -148 278 -69 106 -71 111 -71 171 0 111 50 279 134 449 109 221 180 305
451 528 433 356 488 421 563 658 71 224 77 359 26 535 -35 122 -70 196 -146
306 -35 52 -83 139 -107 194 -25 55 -66 145 -93 199 -45 93 -48 104 -48 177 0
42 11 133 25 202 53 266 126 417 411 847 56 85 162 261 234 390 158 281 200
342 395 585 192 239 328 423 412 555 36 58 114 173 173 255 59 83 132 188 163
235 31 47 102 144 159 215 57 72 137 182 178 245 92 142 138 192 260 286 52
40 147 116 210 169 281 234 427 333 597 407 165 72 166 72 352 181 166 97 281
148 443 197 57 17 200 62 318 100 118 38 289 85 380 105 91 20 257 59 370 86
315 77 365 85 683 120 l296 32 237 -27 c162 -18 250 -32 279 -45 24 -10 88
-51 142 -90 86 -62 100 -75 96 -95 -8 -40 24 -91 67 -111 53 -24 104 -13 142
28 54 61 66 72 106 104 53 42 85 112 121 261 51 210 64 308 51 393 -6 41 -17
123 -26 182 -34 252 -104 499 -209 741 l-16 38 30 -23 c16 -13 80 -80 142
-149 62 -69 158 -172 213 -230 142 -148 203 -244 307 -485 37 -88 43 -111 47
-191 3 -67 0 -107 -13 -149 -30 -105 12 -185 98 -185 22 0 56 -5 77 -11 31 -9
43 -8 73 6 46 22 57 52 56 155 -2 132 50 249 170 381 68 77 310 284 402 347
120 81 411 258 496 300 64 33 197 82 182 68 -2 -2 -49 -37 -104 -78 -276 -206
-411 -372 -464 -570 -53 -193 -72 -512 -37 -593 25 -58 53 -83 112 -102 98
-31 195 9 210 86 l7 33 86 -5 c47 -3 223 -13 391 -21 168 -9 373 -22 455 -31
83 -8 204 -19 270 -25 178 -16 290 -36 490 -85 301 -74 472 -94 800 -95 88 -1
219 -5 290 -11 72 -6 315 -14 540 -18 l410 -8 164 -41 c152 -39 180 -43 370
-52 300 -15 332 -22 542 -113 151 -66 264 -101 461 -142 95 -20 198 -43 228
-52 77 -21 475 -179 530 -210 25 -14 115 -56 200 -94 85 -38 184 -87 220 -109
36 -21 83 -46 104 -55 22 -9 80 -40 130 -68 82 -46 112 -73 316 -280 208 -211
235 -243 353 -415 71 -102 135 -202 143 -222 10 -24 28 -44 52 -58 50 -28 76
-57 176 -200 190 -271 251 -370 341 -556 83 -170 101 -200 171 -280 107 -119
185 -222 232 -303 170 -294 323 -573 363 -664 27 -60 72 -160 100 -221 28 -62
73 -160 99 -218 86 -189 113 -318 159 -760 40 -389 48 -687 22 -870 -11 -74
-22 -178 -26 -230 -4 -52 -16 -153 -26 -225 -97 -647 -123 -997 -80 -1092 31
-67 60 -77 216 -70 71 3 193 15 270 26 77 10 218 27 313 37 152 16 186 16 285
5 62 -7 166 -17 232 -21 66 -4 128 -11 137 -15 39 -16 78 -122 78 -212 0 -42
-8 -70 -36 -126 -43 -85 -194 -321 -273 -427 -88 -117 -385 -422 -503 -516
-59 -47 -120 -102 -136 -122 -41 -52 -104 -162 -197 -341 l-81 -156 -41 -6
c-23 -3 -49 -11 -58 -19 -24 -20 -44 -75 -51 -139 -3 -31 -15 -86 -26 -122
l-20 -65 21 -42 c14 -28 21 -60 21 -100 0 -117 21 -276 42 -321 31 -65 99
-103 307 -170 282 -92 340 -131 361 -241 15 -78 12 -138 -9 -221 -22 -84 -101
-277 -134 -323 -11 -17 -89 -106 -172 -197 -184 -202 -228 -262 -321 -443 -96
-187 -119 -257 -117 -367 2 -172 45 -290 138 -378 74 -70 265 -161 485 -231
206 -65 268 -97 328 -169 67 -82 92 -145 105 -262 10 -91 9 -107 -11 -189 -21
-86 -95 -276 -153 -391 -15 -31 -78 -131 -139 -222 -116 -174 -241 -413 -285
-546 -58 -177 -66 -317 -31 -556 9 -55 20 -152 25 -215 14 -160 23 -183 89
-250 70 -69 142 -105 322 -159 161 -48 221 -58 405 -66 282 -13 415 -31 507
-72 51 -23 58 -30 72 -70 9 -25 21 -95 27 -155 l11 -109 -49 -102 c-86 -175
-203 -341 -399 -562 -102 -116 -322 -394 -383 -485 -78 -116 -232 -430 -278
-565 -34 -102 -37 -118 -36 -220 1 -136 10 -177 75 -335 61 -146 78 -179 141
-259 68 -88 329 -291 457 -356 70 -36 436 -153 645 -207 185 -48 218 -47 272
7 37 37 42 69 18 114 -18 36 -56 53 -175 81 -52 12 -187 50 -300 86 -113 35
-234 72 -270 83 -80 25 -142 62 -291 174 -180 135 -216 181 -293 374 -68 170
-71 296 -9 453 46 118 164 343 232 445 75 112 248 330 431 540 142 164 278
363 360 526 79 159 86 195 67 345 -31 233 -77 324 -197 384 -134 68 -274 94
-574 110 -247 13 -297 21 -449 71 -130 42 -185 72 -192 104 -6 25 -42 371 -51
480 -7 93 7 208 36 298 41 121 149 327 261 494 148 222 264 466 321 673 18 65
23 110 22 190 -1 172 -44 307 -136 429 -113 150 -195 196 -548 306 -154 48
-289 114 -323 158 -47 62 -66 197 -42 292 18 69 125 278 183 360 22 30 102
122 178 205 77 83 162 184 190 224 58 82 138 275 180 432 23 86 26 111 20 190
-3 50 -15 117 -26 148 -24 71 -81 157 -129 195 -62 49 -196 108 -366 162 -88
28 -166 56 -172 63 -14 13 -28 106 -38 261 l-7 101 56 93 c31 51 96 168 143
260 168 325 191 357 319 454 82 61 384 368 475 482 109 136 285 406 348 534
49 101 56 123 59 187 5 82 -23 208 -64 291 -14 29 -49 74 -78 101 -63 57 -123
79 -241 87 -44 3 -154 13 -245 22 -161 15 -171 15 -375 -6 -116 -13 -253 -29
-305 -36 -52 -8 -128 -17 -167 -21 l-73 -7 0 74 c0 125 33 430 80 734 16 105
36 267 45 360 9 94 23 217 32 274 14 88 14 131 6 270 -6 91 -8 184 -6 206 7
59 -63 681 -92 820 -33 158 -75 284 -142 425 -31 63 -97 208 -148 322 -78 175
-205 412 -406 759 -51 89 -140 206 -233 309 -58 64 -88 109 -122 180 -137 286
-149 306 -362 595 -70 95 -135 185 -144 201 -10 16 -45 61 -79 99 -33 39 -118
153 -187 255 -116 169 -146 204 -344 409 -120 123 -239 240 -266 260 -77 61
-157 105 -419 232 -136 66 -302 147 -368 180 -66 32 -124 59 -128 59 -4 0 -92
33 -195 74 -247 97 -288 110 -466 146 -184 38 -314 76 -454 137 -235 100 -318
119 -612 133 -173 8 -225 15 -330 41 -256 62 -243 61 -565 60 -165 -1 -356 3
-425 9 -69 6 -279 15 -466 20 -398 11 -495 22 -739 84 -207 52 -368 80 -545
96 -69 6 -186 17 -260 25 -74 8 -218 17 -320 20 -102 3 -310 10 -462 17 l-278
11 0 31 c0 17 9 91 19 164 26 182 50 229 185 364 102 103 180 163 436 341 203
142 358 235 481 292 48 21 74 69 65 118 -12 65 -96 112 -159 88 -15 -6 -71
-17 -124 -26 -54 -9 -156 -33 -228 -54 -71 -22 -193 -56 -270 -76 -165 -43
-240 -71 -355 -135 -100 -56 -297 -178 -425 -263 -236 -157 -495 -399 -581
-543 -8 -14 -17 0 -53 87 -110 264 -180 371 -388 594 -288 309 -379 395 -473
447 -47 25 -112 61 -145 80 -39 22 -102 77 -190 166 -165 170 -323 276 -480
325 -79 24 -88 25 -138 10z m944 -5115 c-6 -45 -11 -161 -11 -259 0 -365 83
-667 224 -818 58 -62 225 -165 309 -190 73 -21 81 -27 123 -79 65 -83 104
-166 104 -221 0 -44 -2 -47 -47 -76 -130 -82 -316 -252 -553 -505 -85 -91
-196 -206 -247 -256 -91 -89 -93 -93 -93 -138 0 -36 6 -52 29 -78 26 -30 35
-33 84 -33 68 0 69 1 357 246 280 238 486 425 538 487 60 72 270 396 298 459
39 88 54 168 54 295 0 168 -16 208 -128 313 -186 176 -238 233 -292 320 -49
80 -55 95 -58 155 -3 51 0 74 13 93 l17 26 56 -39 c75 -53 145 -67 402 -78
195 -9 208 -10 259 -36 62 -32 149 -110 193 -174 58 -84 107 -360 94 -537 -11
-159 -53 -313 -141 -520 -52 -122 -55 -167 -14 -211 62 -66 141 -48 196 47 17
30 65 86 105 124 119 110 191 199 323 395 144 214 163 253 240 492 l57 176 68
-76 c122 -137 253 -245 403 -330 48 -28 134 -84 190 -125 56 -41 161 -112 232
-159 72 -46 167 -117 213 -156 138 -119 184 -147 356 -211 104 -39 179 -80
358 -193 48 -31 123 -68 165 -83 151 -54 224 -87 308 -142 47 -31 84 -57 83
-58 -2 -2 -59 -8 -128 -14 -519 -48 -1047 -161 -1275 -273 -74 -36 -97 -57
-114 -104 -25 -69 28 -159 100 -170 45 -7 95 24 104 65 6 27 13 32 98 59 194
63 181 60 502 116 328 58 682 95 975 103 l226 6 124 -66 c69 -36 206 -100 305
-142 99 -43 241 -106 315 -140 151 -70 215 -95 410 -158 74 -24 189 -71 255
-104 66 -33 190 -90 275 -127 151 -65 186 -84 442 -250 277 -178 347 -228 438
-310 52 -47 170 -147 262 -221 214 -173 271 -226 361 -338 152 -188 373 -525
428 -655 11 -25 35 -123 54 -217 18 -94 46 -218 60 -275 24 -95 27 -119 23
-251 l-3 -145 -66 -90 c-102 -137 -135 -193 -235 -399 -51 -104 -109 -215
-129 -245 -28 -43 -35 -62 -30 -85 12 -65 84 -101 143 -71 46 24 85 78 154
213 55 107 66 123 88 123 40 1 103 34 134 71 42 50 113 203 132 284 25 108 32
121 102 186 104 97 108 99 252 99 l125 0 80 -43 c81 -44 117 -79 236 -233 109
-142 198 -459 199 -710 0 -72 -5 -94 -49 -212 -78 -209 -114 -258 -274 -366
-106 -72 -225 -116 -319 -116 -36 0 -126 -9 -200 -20 -73 -11 -162 -20 -198
-20 -83 0 -126 -23 -136 -74 -13 -71 23 -126 95 -146 50 -14 77 -13 229 10 74
11 163 20 199 20 l64 0 -6 -47 c-4 -27 -11 -73 -17 -103 -14 -74 -13 -91 6
-132 16 -33 16 -40 -14 -179 -443 -2094 -2217 -3928 -4690 -4847 -516 -192
-1023 -335 -1508 -426 -796 -150 -1457 -204 -2254 -184 -1286 31 -2547 322
-3637 838 -777 368 -1376 778 -1943 1328 -819 796 -1367 1772 -1567 2792 -61
308 -81 494 -88 800 -6 322 7 628 35 822 21 144 15 181 -40 217 -45 29 -60 69
-83 213 -9 57 -25 148 -37 202 -19 94 -20 119 -14 450 10 496 28 603 179 1051
110 326 113 334 216 510 48 82 128 220 177 305 49 85 110 183 136 218 77 101
278 322 488 535 154 157 220 216 315 282 66 47 170 130 230 186 61 56 128 114
150 129 153 106 668 400 700 400 32 0 316 -116 428 -175 97 -51 159 -76 255
-102 69 -19 141 -41 158 -49 18 -9 83 -58 146 -110 150 -127 243 -191 401
-281 169 -96 190 -112 207 -162 17 -52 39 -71 87 -78 32 -4 45 0 71 22 63 53
51 151 -29 238 -26 29 -87 76 -136 106 -194 119 -278 178 -415 292 -163 135
-252 186 -389 224 -127 35 -189 60 -289 116 -47 27 -122 62 -168 80 -73 28
-81 33 -65 44 34 23 338 182 630 329 161 81 375 197 475 258 101 61 327 184
503 273 422 213 612 333 880 560 58 50 132 112 163 138 31 27 103 80 160 119
80 55 141 110 277 252 95 99 184 194 196 210 30 38 33 24 20 -76z m-9316
-7393 c119 -148 197 -280 243 -410 28 -80 65 -286 63 -357 -1 -92 -59 -338
-79 -338 -34 0 -272 -35 -377 -55 -104 -20 -183 -27 -390 -35 -143 -5 -273
-13 -289 -16 l-30 -6 34 43 c19 24 55 69 81 99 63 75 131 172 227 325 129 203
167 288 211 465 22 85 50 194 64 242 14 47 29 125 33 173 l7 87 65 -64 c35
-35 97 -104 137 -153z m675 -1320 c45 -23 177 -116 213 -149 16 -14 42 -56 59
-92 26 -57 30 -73 25 -122 -9 -99 -46 -187 -126 -307 -64 -95 -95 -129 -196
-217 -66 -57 -150 -127 -187 -157 -37 -29 -84 -71 -103 -94 -49 -57 -97 -158
-98 -204 -1 -50 26 -105 63 -126 31 -19 267 -71 368 -82 79 -8 182 -39 213
-64 22 -18 23 -21 9 -46 -8 -15 -51 -54 -95 -86 -44 -33 -146 -107 -227 -166
-80 -60 -176 -130 -212 -156 -121 -89 -146 -152 -111 -282 30 -111 89 -149
335 -216 128 -34 148 -42 172 -71 37 -43 46 -92 23 -134 -33 -62 -118 -138
-215 -193 -114 -65 -182 -116 -294 -222 -128 -121 -143 -182 -67 -286 22 -31
56 -54 151 -103 130 -68 140 -78 140 -150 0 -75 -19 -86 -253 -141 -114 -27
-220 -55 -236 -63 -34 -18 -81 -71 -81 -92 0 -32 -51 -37 -320 -33 -146 2
-323 3 -395 1 -117 -2 -140 1 -235 27 -58 16 -119 34 -137 42 -26 10 -38 10
-72 -1 -59 -19 -116 -8 -291 55 -175 64 -210 87 -313 203 -160 180 -179 227
-250 622 -58 322 -99 582 -116 740 -26 237 -58 1037 -53 1320 2 145 18 216 69
315 69 135 81 151 123 168 41 16 70 60 70 107 0 53 482 226 791 284 196 37
472 66 623 66 156 0 255 10 476 50 91 16 233 36 315 45 83 9 166 20 185 25 59
15 220 6 260 -15z m12240 -4830 c0 -9 -15 -91 -32 -183 l-33 -167 2 -308 c2
-218 7 -340 19 -415 30 -207 73 -350 115 -388 10 -9 19 -23 19 -30 0 -7 -37
-45 -82 -84 -46 -39 -94 -89 -108 -113 -29 -47 -190 -166 -226 -167 -32 0 -83
-20 -147 -58 -66 -38 -351 -163 -442 -193 -33 -11 -102 -27 -154 -35 -111 -18
-145 -31 -194 -74 -69 -60 -69 -57 -79 -780 -5 -355 -11 -690 -14 -746 l-5
-101 -37 -11 c-20 -7 -121 -75 -224 -152 -103 -77 -189 -140 -192 -140 -2 0
-47 58 -99 129 -94 126 -157 189 -287 286 -67 50 -107 83 -174 142 l-38 35 16
156 c10 87 28 222 41 302 13 80 30 215 39 300 8 85 21 205 28 265 19 174 17
209 -12 240 -14 15 -39 33 -56 40 -52 21 -429 311 -512 393 -88 87 -187 208
-344 425 -60 82 -146 190 -192 241 -46 51 -96 112 -112 136 l-29 43 -7 291
c-8 338 -17 397 -83 534 -25 52 -45 98 -45 104 0 7 14 8 38 4 526 -88 1237
-133 1846 -115 547 16 1133 80 1626 178 176 35 170 34 170 16z m232 -915 c44
-13 93 -52 113 -91 8 -15 15 -53 15 -84 0 -61 -15 -98 -73 -179 l-35 -48 -15
23 c-18 30 -32 89 -52 217 -18 125 -19 172 -2 172 6 0 29 -5 49 -10z m-8405
-487 c-1 -81 -3 -17 -3 142 0 160 2 226 3 148 2 -78 2 -208 0 -290z m1074 230
c13 -16 12 -17 -3 -4 -17 13 -22 21 -14 21 2 0 10 -8 17 -17z m3500 -140 c13
-16 12 -17 -3 -4 -17 13 -22 21 -14 21 2 0 10 -8 17 -17z m-2398 -20 c-29 -2
-77 -2 -105 0 -29 2 -6 3 52 3 58 0 81 -1 53 -3z m2878 -590 c13 -16 12 -17
-3 -4 -17 13 -22 21 -14 21 2 0 10 -8 17 -17z m3966 -35 c-3 -7 -5 -2 -5 12 0
14 2 19 5 13 2 -7 2 -19 0 -25z m-3806 -125 c13 -16 12 -17 -3 -4 -17 13 -22
21 -14 21 2 0 10 -8 17 -17z m-2206 -13 c10 -11 16 -20 13 -20 -3 0 -13 9 -23
20 -10 11 -16 20 -13 20 3 0 13 -9 23 -20z m4888 3 c-7 -2 -21 -2 -30 0 -10 3
-4 5 12 5 17 0 24 -2 18 -5z m3814 -199 c-3 -3 -12 -4 -19 -1 -8 3 -5 6 6 6
11 1 17 -2 13 -5z m-230 -51 c-3 -10 -5 -4 -5 12 0 17 2 24 5 18 2 -7 2 -21 0
-30z m-5818 -97 c-3 -3 -11 5 -18 17 -13 21 -12 21 5 5 10 -10 16 -20 13 -22z
m4361 -671 c-24 -25 -46 -45 -49 -45 -3 0 15 20 39 45 24 25 46 45 49 45 3 0
-15 -20 -39 -45z m-5990 -120 c13 -14 21 -25 18 -25 -2 0 -15 11 -28 25 -13
14 -21 25 -18 25 2 0 15 -11 28 -25z m-3500 -188 c0 -2 -17 -19 -37 -38 l-38
-34 34 38 c33 34 41 42 41 34z m14303 -534 c-13 -2 -33 -2 -45 0 -13 2 -3 4
22 4 25 0 35 -2 23 -4z m289 -10 c-40 -2 -103 -2 -140 0 -37 2 -4 3 73 3 77 0
107 -2 67 -3z m728 -91 c0 -3 -5 -1 -12 6 -7 7 -22 12 -35 12 -16 0 -21 4 -17
15 5 13 11 12 35 -6 16 -11 29 -23 29 -27z m101 -129 c13 -16 12 -17 -3 -4
-17 13 -22 21 -14 21 2 0 10 -8 17 -17z m-9411 -107 c0 -2 -8 -10 -17 -17 -16
-13 -17 -12 -4 4 13 16 21 21 21 13z m-346 -15 c3 -5 -2 -15 -12 -22 -15 -12
-16 -12 -5 2 7 9 10 19 6 22 -3 4 -4 7 0 7 3 0 8 -4 11 -9z m456 -184 c0 -2
-10 -12 -22 -23 l-23 -19 19 23 c18 21 26 27 26 19z m9527 -159 c-3 -8 -6 -5
-6 6 -1 11 2 17 5 13 3 -3 4 -12 1 -19z m-8547 -82 c0 -2 -8 -10 -17 -17 -16
-13 -17 -12 -4 4 13 16 21 21 21 13z m-1433 -128 c-3 -7 -5 -2 -5 12 0 14 2
19 5 13 2 -7 2 -19 0 -25z m9201 -65 c-48 -87 -162 -251 -213 -308 l-45 -50
46 80 c25 43 56 93 68 111 26 38 170 224 174 224 1 0 -12 -26 -30 -57z m-9266
-348 c-2 -19 -6 -35 -8 -35 -2 0 -4 16 -4 35 0 19 4 35 8 35 4 0 6 -16 4 -35z
m-15 -157 c-2 -13 -4 -3 -4 22 0 25 2 35 4 23 2 -13 2 -33 0 -45z m8823 -152
c0 -2 -8 -10 -17 -17 -16 -13 -17 -12 -4 4 13 16 21 21 21 13z m550 -139 c0
-2 -12 -14 -27 -28 l-28 -24 24 28 c23 25 31 32 31 24z m-8453 -39 c-3 -8 -6
-5 -6 6 -1 11 2 17 5 13 3 -3 4 -12 1 -19z m9430 -31 c12 -17 56 -70 98 -117
42 -47 117 -146 168 -220 57 -83 128 -171 186 -230 178 -181 202 -211 466
-595 38 -55 108 -140 155 -190 47 -49 129 -139 181 -200 95 -111 260 -292 402
-440 42 -44 105 -124 139 -178 35 -53 105 -157 156 -230 52 -72 100 -144 107
-158 18 -35 67 -289 61 -315 -10 -38 -161 -258 -299 -433 -49 -62 -424 -417
-577 -546 -175 -147 -367 -321 -515 -465 -186 -180 -519 -492 -713 -666 -86
-77 -191 -179 -232 -225 -41 -46 -121 -132 -176 -191 -134 -142 -149 -173
-146 -303 4 -202 29 -298 95 -371 66 -74 132 -240 167 -420 19 -98 20 -121 10
-270 -12 -199 -33 -310 -70 -385 -45 -89 -267 -376 -333 -431 -74 -61 -187
-138 -252 -170 -97 -49 -449 -145 -720 -196 -322 -61 -644 -117 -750 -131 -44
-6 -172 -24 -285 -41 -226 -34 -301 -32 -359 9 -43 31 -133 71 -158 71 -13 0
-23 3 -23 8 0 4 30 32 66 62 36 30 122 117 191 193 68 76 136 145 149 154 35
22 80 91 93 141 9 32 9 48 -2 74 -19 45 -38 58 -94 66 l-48 7 -36 100 c-47
131 -70 182 -129 285 -27 47 -59 112 -71 145 -12 33 -32 78 -45 100 -12 22
-35 92 -49 155 -33 139 -65 230 -116 333 -22 42 -51 119 -64 170 -49 178 -57
203 -97 292 -22 50 -62 151 -88 225 -26 75 -71 195 -99 268 -50 128 -176 591
-201 735 -12 65 -11 69 9 88 11 11 21 25 21 31 0 30 300 310 545 508 44 36
132 114 195 173 172 163 665 536 882 668 24 15 144 93 268 174 124 82 275 175
335 208 61 33 164 90 230 127 66 37 238 127 382 199 214 107 287 138 402 172
77 23 154 50 170 60 40 24 59 85 41 129 -31 76 -91 80 -285 22 -159 -49 -502
-209 -788 -369 l-167 -94 -27 21 c-15 12 -43 56 -63 98 -20 42 -76 141 -123
218 -48 78 -87 146 -87 152 0 5 40 35 88 65 49 31 126 85 173 119 46 35 137
94 202 132 141 83 187 124 397 351 89 97 235 241 324 321 226 203 424 433 523
606 28 48 78 153 113 233 34 80 65 145 69 145 3 0 16 -15 28 -33z m-1087 -50
c0 -2 -10 -12 -22 -23 l-23 -19 19 23 c18 21 26 27 26 19z m-9260 -73 c0 -8
-5 -12 -10 -9 -6 4 -8 11 -5 16 9 14 15 11 15 -7z m7 -86 c-3 -8 -6 -5 -6 6
-1 11 2 17 5 13 3 -3 4 -12 1 -19z m10 -165 c-2 -16 -4 -3 -4 27 0 30 2 43 4
28 2 -16 2 -40 0 -55z m10 -115 c-3 -8 -6 -5 -6 6 -1 11 2 17 5 13 3 -3 4 -12
1 -19z m10 -120 c-3 -7 -5 -2 -5 12 0 14 2 19 5 13 2 -7 2 -19 0 -25z m10
-130 c-3 -7 -5 -2 -5 12 0 14 2 19 5 13 2 -7 2 -19 0 -25z m20 -660 c-2 -24
-4 -7 -4 37 0 44 2 63 4 43 2 -21 2 -57 0 -80z m6989 -67 c23 -10 54 -35 69
-55 15 -19 69 -69 121 -111 52 -42 127 -105 166 -140 43 -40 107 -83 162 -111
50 -26 132 -71 181 -100 50 -29 133 -73 185 -99 89 -44 99 -46 157 -42 40 3
77 13 105 29 l43 24 29 -34 c75 -86 243 -430 220 -451 -5 -5 -162 -109 -349
-231 -187 -123 -365 -241 -395 -263 -229 -167 -518 -395 -607 -479 -58 -55
-147 -134 -197 -175 -149 -123 -340 -299 -435 -399 l-89 -95 -27 118 c-15 65
-37 163 -50 218 -13 55 -38 179 -55 275 -28 154 -32 190 -27 295 4 113 7 128
49 235 25 63 55 148 67 189 13 41 63 155 112 253 49 98 143 300 209 449 66
148 140 310 165 358 41 82 71 165 110 304 9 31 22 57 28 57 7 0 31 -9 53 -19z
m-7389 -578 c-3 -10 -5 -4 -5 12 0 17 2 24 5 18 2 -7 2 -21 0 -30z m-5460
-2995 c-3 -8 -6 -5 -6 6 -1 11 2 17 5 13 3 -3 4 -12 1 -19z m9623 8 c0 -2 -8
-10 -17 -17 -16 -13 -17 -12 -4 4 13 16 21 21 21 13z m-8979 -923 c13 -16 12
-17 -3 -4 -10 7 -18 15 -18 17 0 8 8 3 21 -13z m70 -70 c13 -16 12 -17 -3 -4
-10 7 -18 15 -18 17 0 8 8 3 21 -13z m3192 -990 c-7 -2 -19 -2 -25 0 -7 3 -2
5 12 5 14 0 19 -2 13 -5z"/>
<path d="M20205 28318 c-27 -16 -50 -41 -70 -78 -28 -51 -30 -63 -30 -155 0
-91 3 -105 29 -158 61 -119 196 -246 401 -376 56 -36 233 -182 234 -194 1 -4
-10 -18 -23 -30 -13 -12 -81 -82 -151 -155 -149 -157 -167 -190 -245 -448 -57
-187 -91 -371 -115 -611 -9 -87 -20 -176 -25 -198 -5 -22 -16 -119 -24 -215
-30 -330 -24 -297 -54 -305 -15 -4 -119 -27 -231 -51 -362 -78 -566 -150 -821
-288 -307 -167 -362 -217 -368 -336 -5 -91 21 -261 77 -500 27 -113 58 -254
69 -313 20 -109 68 -229 116 -292 13 -16 60 -88 105 -160 46 -71 111 -163 147
-205 71 -84 418 -422 528 -515 39 -33 116 -106 170 -163 92 -95 339 -288 453
-354 21 -12 72 -45 113 -74 105 -72 135 -86 310 -139 412 -126 472 -135 985
-138 378 -2 413 1 670 63 88 21 194 44 235 50 94 14 212 45 253 67 18 9 91 52
162 97 107 66 155 105 270 216 77 75 159 151 183 169 74 57 195 232 280 401
42 85 99 184 125 218 53 69 95 148 134 251 30 81 106 382 128 511 9 52 18 97
20 100 2 3 20 84 41 180 30 141 37 198 38 293 1 104 3 118 19 123 25 8 57 63
57 97 0 66 -20 83 -208 174 -97 47 -235 104 -307 128 -71 24 -152 53 -180 66
-27 12 -147 54 -265 94 l-215 72 -6 64 c-4 35 -7 142 -8 238 -1 214 -33 437
-92 639 -21 75 -39 140 -39 145 0 4 38 -12 85 -37 132 -70 214 -71 288 -6 66
57 117 216 103 313 -9 57 -49 141 -97 203 -47 61 -349 350 -543 519 -160 140
-254 207 -385 274 -97 49 -369 152 -451 170 -26 6 -207 11 -425 11 -455 0
-497 5 -661 81 l-112 51 -90 112 c-115 142 -247 271 -303 295 -29 13 -79 22
-144 26 -93 6 -103 4 -140 -17z m1614 -1230 c266 -109 340 -157 433 -281 33
-45 74 -98 89 -117 34 -44 115 -180 169 -285 l42 -80 -5 -140 c-6 -165 -35
-341 -78 -469 -30 -92 -96 -234 -124 -270 -19 -24 -42 -24 -300 9 -335 42
-409 46 -774 44 -341 -2 -355 -2 -362 17 -18 47 -4 468 26 790 28 295 54 415
120 549 53 110 123 191 203 233 53 28 61 30 78 17 32 -24 95 -18 145 13 64 41
67 42 134 35 41 -4 106 -25 204 -65z m-174 -1808 c158 -11 486 -50 497 -59 4
-3 -20 -39 -52 -78 -57 -68 -67 -76 -192 -138 -240 -118 -343 -124 -608 -38
-138 46 -162 66 -237 204 -29 52 -53 98 -53 102 0 16 449 21 645 7z m-1491
-332 c-6 -219 -6 -225 21 -338 15 -63 35 -164 45 -225 36 -218 128 -512 206
-653 20 -37 56 -112 81 -167 24 -55 56 -116 72 -135 15 -19 55 -76 89 -126 90
-135 178 -210 337 -289 72 -35 198 -100 280 -144 245 -131 455 -173 671 -137
186 32 278 69 381 154 32 26 85 68 118 92 227 166 344 291 462 490 104 175
136 243 181 380 52 156 72 263 82 450 6 96 17 274 25 395 9 121 15 240 15 264
0 37 2 42 18 36 9 -4 87 -29 172 -57 85 -28 172 -59 193 -70 21 -10 98 -39
170 -63 107 -35 358 -143 376 -161 2 -2 -3 -12 -11 -21 -21 -24 -35 -81 -43
-181 -3 -46 -22 -156 -41 -245 -20 -89 -42 -198 -50 -242 -36 -186 -113 -473
-146 -545 -19 -41 -58 -105 -86 -142 -28 -37 -85 -136 -126 -220 -88 -178
-178 -304 -269 -376 -34 -28 -107 -97 -162 -154 -82 -85 -123 -118 -230 -184
-158 -97 -161 -99 -305 -124 -63 -12 -189 -38 -280 -60 -238 -56 -353 -64
-760 -51 -379 12 -419 17 -586 66 -347 102 -342 100 -448 170 -322 215 -431
298 -546 418 -58 60 -139 138 -180 172 -41 35 -172 160 -291 277 -169 167
-228 232 -274 303 -32 50 -87 134 -122 187 -75 114 -96 163 -118 284 -9 49
-40 179 -70 289 -55 205 -89 381 -83 432 4 34 46 63 217 151 225 117 489 208
771 267 69 14 150 32 180 39 30 8 59 14 63 15 4 1 5 -99 1 -221z"/>
<path d="M12703 28110 c-28 -11 -59 -61 -68 -108 -4 -20 -20 -52 -37 -71 -81
-92 -103 -202 -95 -462 7 -217 21 -271 90 -341 95 -98 269 -198 344 -198 12 0
23 -3 23 -7 0 -10 -120 -275 -130 -288 -4 -5 -35 -64 -69 -131 -74 -149 -98
-233 -113 -396 l-12 -128 -131 0 c-234 0 -689 -55 -820 -99 -74 -24 -211 -108
-245 -149 -43 -52 -91 -211 -92 -304 -1 -61 6 -96 40 -199 22 -68 57 -176 77
-239 20 -63 65 -185 100 -271 35 -85 73 -187 83 -225 11 -38 32 -100 47 -139
50 -128 199 -419 266 -520 37 -55 101 -162 142 -237 138 -249 321 -494 562
-750 188 -201 363 -344 589 -481 193 -118 224 -134 301 -155 39 -11 107 -38
153 -60 57 -28 110 -45 175 -56 50 -8 146 -25 212 -36 256 -43 628 -19 803 51
42 17 105 42 140 55 236 90 406 161 471 198 42 24 105 59 141 79 36 20 108 75
160 124 53 48 121 110 153 137 63 54 294 302 363 392 24 30 65 81 93 113 50
57 171 241 208 316 11 22 30 72 43 110 12 39 32 88 45 110 37 66 122 274 144
355 24 87 51 260 51 325 0 24 12 79 26 122 20 61 26 107 31 210 l6 133 34 -30
c18 -16 43 -32 56 -34 12 -3 126 -7 252 -10 285 -5 463 -35 540 -89 20 -15 45
-22 73 -22 37 0 48 5 73 33 61 68 28 155 -78 208 -117 57 -282 83 -573 90
-102 2 -204 6 -227 10 -50 7 -104 -20 -132 -67 l-17 -28 -13 63 c-15 73 -39
117 -78 143 -15 10 -39 30 -53 45 -19 21 -43 31 -103 43 -42 9 -155 41 -250
71 -201 65 -443 129 -577 154 -171 31 -455 92 -462 99 -4 3 -17 87 -28 186
-25 220 -86 556 -140 768 -39 154 -50 247 -30 247 5 0 49 -22 97 -50 48 -27
102 -53 119 -56 46 -9 104 22 126 66 38 75 16 248 -48 378 -52 107 -364 392
-497 456 -55 26 -279 85 -402 106 -46 8 -128 10 -240 7 -158 -6 -436 -15 -935
-33 -466 -16 -701 61 -623 204 26 47 37 131 23 181 -19 72 -89 108 -157 81z
m1588 -1165 c19 -10 52 -32 74 -50 52 -42 78 -55 109 -55 32 0 103 -87 154
-189 46 -93 50 -146 28 -396 -12 -134 -67 -485 -81 -513 -3 -4 -400 57 -525
82 -69 13 -215 34 -325 46 -110 12 -206 24 -214 26 -23 7 2 251 38 369 78 253
185 468 278 557 44 42 177 116 243 135 58 17 177 10 221 -12z m-1681 -1392 c1
-134 5 -221 15 -268 8 -38 21 -153 29 -255 11 -144 23 -225 55 -365 23 -99 48
-200 56 -225 9 -25 24 -109 35 -185 25 -171 51 -269 147 -540 84 -236 124
-328 185 -424 71 -114 205 -286 245 -316 21 -16 93 -85 161 -153 146 -147 179
-165 397 -218 136 -32 159 -35 245 -30 395 24 426 30 515 89 144 96 244 170
282 209 60 62 266 321 323 405 89 132 130 296 130 521 0 136 13 294 52 622 24
195 13 700 -18 876 l-6 31 284 -57 c339 -70 444 -94 648 -153 85 -24 180 -50
210 -57 30 -7 66 -21 79 -31 13 -11 29 -19 36 -19 21 0 25 -26 25 -183 0 -136
-3 -158 -26 -225 -16 -47 -29 -113 -34 -180 -19 -217 -48 -325 -142 -522 -32
-69 -70 -158 -83 -199 -27 -82 -140 -271 -208 -347 -24 -27 -63 -74 -86 -104
-77 -99 -279 -317 -358 -386 -43 -37 -107 -96 -143 -130 -60 -59 -96 -82 -285
-184 -38 -21 -153 -71 -255 -110 -102 -39 -221 -86 -265 -105 -49 -20 -119
-40 -181 -49 -136 -21 -421 -21 -540 0 -49 8 -130 22 -181 29 -70 10 -116 24
-190 58 -54 25 -124 52 -155 61 -73 21 -337 180 -478 289 -131 101 -378 349
-487 487 -45 58 -95 121 -111 140 -52 62 -196 286 -252 391 -30 57 -83 145
-118 197 -112 167 -248 457 -312 666 -12 38 -51 139 -86 225 -36 86 -92 233
-124 326 -33 94 -65 184 -71 201 -11 28 -10 35 16 68 27 35 30 52 25 125 -3
38 12 53 96 96 58 29 257 66 454 84 69 6 139 13 155 15 17 1 90 4 163 5 l132
1 0 -197z m1141 97 c91 -11 210 -29 265 -40 54 -11 189 -34 298 -50 110 -17
202 -32 205 -35 7 -8 -16 -69 -66 -175 -43 -90 -55 -104 -217 -268 -172 -175
-206 -202 -248 -202 -71 0 -95 18 -249 183 -206 222 -239 291 -239 510 l0 108
43 -6 c23 -3 117 -14 208 -25z"/>
<path d="M17410 22531 c-167 -7 -202 -19 -227 -78 -13 -32 -13 -40 2 -79 19
-50 51 -79 104 -94 31 -8 44 -6 90 17 l54 26 361 -7 c199 -4 397 -12 441 -17
151 -20 181 -11 219 66 17 35 18 42 5 79 -23 66 -48 74 -255 86 -186 10 -543
10 -794 1z"/>
<path d="M17590 21580 c-152 -7 -230 -17 -340 -45 -30 -8 -103 -21 -161 -30
-244 -36 -568 -133 -650 -195 -30 -22 -57 -40 -60 -40 -14 0 -49 -68 -49 -95
0 -15 7 -43 16 -63 67 -149 118 -249 154 -302 23 -35 69 -118 100 -185 111
-234 224 -398 377 -545 95 -93 102 -97 241 -159 79 -34 169 -71 200 -82 32
-11 104 -42 162 -69 74 -34 150 -60 260 -86 135 -33 175 -38 308 -42 90 -2
170 0 195 6 23 6 104 20 179 32 179 27 295 62 503 150 183 78 264 126 365 217
36 32 108 93 161 136 104 83 154 137 244 262 73 102 100 156 121 241 27 115
104 406 122 462 16 51 16 55 -3 90 -28 51 -71 72 -285 136 -250 75 -336 91
-765 145 -88 12 -209 31 -270 42 -101 20 -145 22 -540 24 -236 2 -500 -1 -585
-5z m1120 -244 c74 -13 196 -32 270 -41 159 -19 448 -62 505 -75 45 -11 307
-89 312 -94 2 -1 -17 -77 -41 -167 -24 -90 -49 -189 -55 -220 -22 -105 -166
-291 -320 -412 -36 -28 -103 -84 -148 -123 -91 -79 -139 -105 -348 -193 -136
-57 -259 -93 -360 -106 -27 -3 -101 -16 -164 -27 -91 -17 -137 -20 -230 -15
-153 8 -368 60 -482 118 -45 22 -118 53 -163 69 -167 59 -297 127 -359 188
-118 115 -230 278 -334 487 -31 60 -79 144 -108 185 -55 79 -125 209 -125 234
0 26 285 103 505 136 77 12 185 30 240 41 172 34 217 36 750 38 508 1 523 0
655 -23z"/>
<path d="M9222 25290 c-58 -35 -66 -71 -58 -265 3 -93 15 -255 25 -360 16
-157 26 -209 56 -300 52 -159 128 -308 256 -498 127 -190 208 -288 333 -401
121 -109 310 -340 395 -482 78 -129 150 -307 197 -485 22 -88 23 -297 1 -528
-18 -195 -30 -254 -77 -381 -40 -110 -54 -134 -122 -219 -32 -40 -72 -99 -87
-130 -44 -85 -129 -312 -148 -391 -9 -39 -20 -70 -24 -70 -6 0 -44 48 -126
160 -23 30 -70 85 -106 121 l-65 65 -7 85 c-9 115 -9 104 -1 384 7 246 26 467
48 555 24 95 113 260 141 260 59 0 120 40 131 86 8 29 -18 89 -42 99 -70 29
-155 22 -210 -19 -87 -64 -209 -277 -237 -414 -23 -113 -53 -397 -65 -622 -9
-168 -8 -228 4 -332 18 -160 36 -199 124 -286 38 -37 106 -116 150 -177 44
-60 101 -130 127 -155 26 -25 52 -56 60 -70 18 -35 39 -250 31 -321 -11 -113
-42 -157 -196 -284 -75 -63 -143 -123 -151 -133 -8 -11 -69 -79 -137 -152
-156 -169 -239 -303 -272 -440 -16 -67 -8 -279 15 -365 27 -106 27 -103 4 -75
-32 40 -116 184 -168 289 -27 53 -80 150 -118 216 -38 66 -73 133 -78 150 -13
37 -68 75 -109 75 -48 0 -94 -33 -101 -74 -9 -43 -2 -65 47 -144 21 -35 90
-165 152 -290 63 -125 149 -285 193 -357 43 -71 114 -209 157 -305 43 -96 120
-265 171 -375 328 -707 456 -1113 649 -2050 59 -286 64 -301 96 -330 34 -31
112 -28 146 6 44 44 41 84 -25 399 -191 911 -343 1390 -656 2056 -57 121 -57
119 -14 144 77 44 57 264 -41 460 -21 41 -52 127 -70 190 -28 98 -33 133 -34
230 -1 114 -1 116 36 190 21 41 61 107 90 145 71 95 277 305 363 370 162 122
219 197 260 340 10 33 18 61 20 62 3 5 430 -282 494 -331 130 -100 198 -211
208 -338 6 -85 0 -103 -70 -189 -50 -61 -76 -80 -317 -229 -91 -57 -192 -122
-225 -145 -175 -125 -324 -275 -378 -385 -29 -59 -32 -73 -32 -160 0 -128 23
-181 92 -212 42 -18 53 -20 92 -9 83 22 131 75 131 144 0 41 -30 82 -65 91
-51 13 -22 70 93 186 101 100 192 167 445 325 115 72 235 154 268 183 66 60
173 212 188 269 26 92 0 237 -64 369 -76 156 -192 262 -530 486 -88 58 -192
133 -231 167 l-71 61 -7 64 c-12 116 19 270 95 475 59 158 83 202 156 291 62
75 96 142 148 290 60 173 65 202 101 635 17 205 -77 568 -218 837 -86 164
-306 447 -488 628 -121 121 -174 183 -241 280 -237 347 -283 464 -323 825 -36
317 -38 363 -15 375 9 6 23 25 29 45 32 96 -102 174 -198 115z"/>
</g>
</svg>
