<?xml version="1.0" standalone="no"?>
<!DOCTYPE svg PUBLIC "-//W3C//DTD SVG 20010904//EN"
 "http://www.w3.org/TR/2001/REC-SVG-20010904/DTD/svg10.dtd">
<svg version="1.0" xmlns="http://www.w3.org/2000/svg"
 width="260.000000pt" height="260.000000pt" viewBox="0 0 260.000000 260.000000"
 preserveAspectRatio="xMidYMid meet">
<metadata>
Created by potrace 1.11, written by Peter Selinger 2001-2013
</metadata>
<g transform="translate(0.000000,260.000000) scale(0.100000,-0.100000)"
fill="#000000" stroke="none">
<path d="M1080 2496 c0 -8 7 -16 15 -19 14 -6 55 -77 55 -97 0 -6 -16 -3 -40
6 -33 14 -45 14 -70 4 -16 -7 -27 -17 -24 -22 4 -6 10 -6 17 1 15 15 47 13 76
-3 21 -12 16 -13 -57 -18 -141 -10 -217 -58 -334 -213 -84 -110 -105 -177 -83
-258 7 -24 2 -34 -29 -66 -39 -40 -44 -55 -32 -113 3 -20 2 -39 -3 -42 -17
-11 6 -77 47 -135 51 -72 57 -96 34 -146 l-19 -40 -12 38 c-10 28 -10 41 -1
51 7 10 8 16 0 21 -21 13 -31 -43 -14 -84 12 -31 13 -44 4 -60 -7 -13 -16 -19
-23 -14 -7 4 -21 6 -32 4 -19 -3 -19 -2 -2 16 23 27 21 52 -5 62 l-22 8 22 14
c16 10 22 23 22 50 0 20 5 50 11 68 10 28 8 36 -15 71 -27 41 -33 74 -16 85 6
3 10 14 10 23 -1 30 -40 -27 -40 -58 0 -15 11 -40 25 -56 29 -34 28 -31 14
-73 -8 -22 -16 -30 -26 -27 -8 3 -17 6 -19 6 -2 0 -4 15 -4 33 0 37 -33 97
-54 97 -8 0 -16 -16 -20 -41 -7 -46 -52 -109 -79 -109 -9 0 -26 -9 -37 -20
-17 -17 -20 -33 -20 -100 0 -91 15 -138 52 -162 23 -15 26 -25 31 -105 4 -78
46 -266 62 -282 9 -9 272 -7 281 2 14 14 -2 16 -76 6 -76 -9 -184 3 -196 23
-19 30 -54 199 -54 257 l0 68 71 7 c63 6 73 10 97 37 l26 32 11 -39 c6 -22 8
-51 4 -66 -8 -31 2 -78 26 -114 8 -13 15 -32 15 -44 0 -11 5 -20 11 -20 8 0
10 17 5 56 -6 55 -6 56 16 50 13 -3 40 -6 60 -6 51 0 54 -18 24 -155 -13 -60
-21 -113 -18 -117 4 -4 37 -13 74 -20 l66 -12 -4 -36 c-3 -19 -9 -51 -14 -70
-5 -19 -14 -73 -20 -120 -10 -83 -53 -244 -71 -266 -11 -13 26 -48 83 -78 31
-17 34 -21 22 -33 -9 -9 -14 -36 -14 -74 l0 -59 440 0 440 0 0 30 c0 39 28 53
103 51 103 -2 207 61 207 126 0 19 -5 43 -10 53 -8 15 -6 23 7 35 168 142 207
206 170 272 -7 12 -44 55 -82 95 -49 51 -71 81 -72 100 -1 26 -48 99 -61 95
-14 -4 -72 38 -72 52 0 8 14 43 31 78 19 39 28 70 24 82 -3 11 -27 40 -52 63
-54 52 -64 74 -53 122 4 20 4 38 0 41 -10 6 -20 -31 -20 -81 0 -38 6 -47 57
-97 l57 -55 -32 -69 c-18 -38 -32 -75 -32 -81 0 -6 -25 1 -60 16 -50 23 -58
30 -53 47 11 34 5 57 -18 73 -37 25 -59 51 -59 67 0 22 60 85 81 85 10 0 19 5
19 10 0 25 -50 8 -84 -30 -52 -58 -50 -91 9 -132 50 -35 51 -37 32 -62 -13
-17 -19 -18 -68 -7 -98 23 -91 16 -83 78 8 70 -10 65 -21 -4 -4 -27 -12 -51
-18 -55 -7 -4 -27 9 -49 34 -33 35 -42 40 -69 34 -29 -5 -30 -4 -27 25 3 29 9
33 102 70 147 58 248 144 306 260 27 55 37 89 37 123 0 29 6 53 17 65 44 48
23 148 -30 138 -17 -3 -28 3 -41 22 -25 38 -99 108 -123 116 -11 3 -20 10 -20
14 0 4 -18 17 -40 30 -22 12 -38 26 -35 31 6 10 -19 20 -48 20 -30 0 -103 29
-158 62 -51 31 -105 93 -115 132 -7 30 -24 35 -24 7 0 -10 19 -45 43 -78 33
-44 60 -67 108 -93 59 -31 62 -34 38 -40 -39 -11 -70 -30 -64 -40 3 -5 21 -2
40 6 51 21 108 17 167 -11 74 -35 163 -104 200 -155 l31 -42 -18 -34 c-21 -39
-18 -46 13 -37 16 4 22 13 22 34 0 33 23 48 45 29 23 -19 18 -64 -10 -94 -13
-14 -29 -26 -35 -26 -5 0 -10 -4 -10 -10 0 -5 8 -10 18 -10 28 0 16 -57 -32
-152 -60 -121 -150 -193 -326 -263 -165 -65 -400 -52 -567 33 -63 33 -129 106
-167 185 -33 70 -70 203 -60 218 2 4 6 48 8 98 3 92 28 160 55 153 7 -1 10 2
6 8 -7 11 24 40 76 72 27 17 34 15 157 -39 6 -3 12 0 12 7 0 6 -28 24 -62 39
-60 28 -61 29 -37 41 50 26 165 104 197 134 l32 30 0 -47 c0 -36 5 -50 20 -59
27 -17 25 -40 -5 -68 -24 -22 -34 -50 -18 -50 15 0 63 66 63 88 0 12 -9 31
-20 42 -22 22 -28 66 -17 123 9 43 -8 52 -23 12 -13 -35 -48 -64 -155 -132
-49 -31 -97 -62 -105 -69 -8 -6 -29 -10 -47 -7 -21 3 -33 1 -33 -6 0 -6 8 -11
18 -11 14 -1 12 -4 -8 -21 -105 -85 -145 -150 -141 -234 6 -161 39 -294 96
-385 58 -93 164 -162 303 -196 52 -13 74 -24 78 -37 7 -23 -7 -34 -53 -43 -44
-8 -61 0 -69 33 -11 54 -14 59 -23 44 -5 -8 -5 -28 0 -45 5 -17 9 -32 9 -33 0
-2 -12 -3 -27 -3 -49 1 -117 24 -141 48 -12 12 -31 22 -41 22 -25 0 -37 18
-22 33 15 15 14 27 -3 27 -14 0 -26 -21 -26 -46 0 -8 15 -20 33 -28 27 -12 29
-14 10 -15 -13 -1 -23 -5 -23 -11 0 -11 -109 -13 -126 -2 -6 4 -14 23 -18 43
-6 32 -2 40 29 73 44 47 48 91 9 108 -22 10 -25 16 -19 42 4 17 9 54 12 82 4
48 2 56 -40 120 -50 76 -65 114 -47 114 12 0 8 48 -6 85 -3 8 13 34 35 58 43
47 49 69 29 123 -9 27 -8 40 6 77 21 57 129 200 191 255 59 52 152 84 249 86
70 1 71 2 76 30 l5 29 28 -39 c26 -37 27 -37 27 -13 0 14 11 36 24 48 l25 23
3 -33 c2 -26 8 -34 23 -35 274 -10 390 -34 485 -98 126 -85 179 -200 180 -387
0 -86 7 -94 66 -83 51 9 53 -15 9 -81 -20 -30 -39 -70 -42 -89 -5 -30 -2 -34
26 -44 17 -6 31 -15 31 -20 0 -5 -13 -26 -30 -47 -43 -54 -39 -84 13 -104 45
-18 45 -39 -4 -120 -11 -18 -19 -45 -17 -60 2 -21 11 -29 48 -40 96 -29 101
-47 36 -107 -38 -34 -46 -48 -46 -76 0 -45 57 -98 104 -98 28 0 17 16 -19 29
-79 28 -86 71 -20 134 31 30 45 52 45 70 0 32 -24 57 -55 57 -39 0 -75 18 -75
37 0 10 11 36 25 58 14 23 25 56 25 77 0 34 -4 39 -35 52 -19 8 -35 20 -35 27
0 7 14 34 31 61 34 53 33 74 -6 84 -34 9 -32 32 11 95 40 59 52 103 34 114 -7
4 -31 8 -54 9 l-41 1 -6 90 c-8 106 -31 205 -60 251 -37 61 -142 148 -200 166
-103 33 -125 37 -276 49 -148 12 -153 13 -153 35 0 26 23 52 57 65 33 12 30
31 -4 23 -40 -10 -60 -21 -103 -60 l-38 -34 -38 47 c-61 75 -94 99 -94 69z
m-589 -965 c1 -9 3 -26 4 -38 2 -20 -2 -23 -36 -23 -22 0 -39 1 -39 3 0 1 9
20 20 42 11 22 20 46 20 55 1 12 4 11 15 -4 8 -11 16 -27 16 -35z m57 -94 c2
-10 -7 -27 -22 -38 -33 -26 -33 -35 0 -43 29 -8 28 -27 -4 -41 -28 -13 -28
-19 3 -35 32 -17 28 -31 -13 -50 -39 -18 -40 -28 -4 -32 l27 -4 -28 -12 c-69
-29 -153 -1 -178 61 -18 41 -15 166 4 185 14 13 125 31 182 28 20 -1 31 -7 33
-19z m142 -186 c0 -7 -14 -29 -30 -48 l-30 -34 -10 26 c-13 34 -13 48 1 78 11
24 12 24 40 8 16 -9 29 -22 29 -30z m-125 -23 c-10 -13 -14 -16 -11 -8 3 8 9
24 13 35 4 11 8 14 11 7 2 -6 -4 -22 -13 -34z m880 -197 c7 -13 -44 -51 -77
-58 -31 -6 -32 -9 -18 -70 9 -38 8 -45 -11 -64 l-20 -20 -25 26 c-19 20 -24
37 -24 76 0 45 -4 53 -39 87 -24 23 -41 50 -45 71 l-6 34 62 -6 c35 -3 90 -3
123 1 l60 7 7 -38 c4 -20 10 -41 13 -46z m-818 57 c-3 -8 -6 -5 -6 6 -1 11 2
17 5 13 3 -3 4 -12 1 -19z m1117 -136 c2 -4 -2 -15 -9 -25 -12 -16 -13 -16
-17 8 -5 24 14 36 26 17z m35 -79 c-17 -71 -28 -83 -49 -59 -9 12 -10 23 -1
48 16 44 39 78 54 78 11 0 10 -14 -4 -67z m180 -19 c2 -2 -11 -17 -29 -34 -23
-22 -30 -34 -22 -39 9 -5 9 -12 -1 -26 -9 -11 -19 -15 -27 -10 -17 10 -7 79
14 101 14 13 14 19 4 32 -11 12 -6 12 22 -3 19 -10 37 -19 39 -21z m31 -21
c-1 -25 -26 -56 -39 -48 -7 4 -3 17 11 36 25 34 28 35 28 12z m134 -194 c-3
-5 1 -6 8 -4 12 5 65 -56 92 -102 16 -29 -46 -105 -182 -226 -15 -13 -21 -26
-16 -36 15 -33 16 -82 3 -97 -26 -31 -89 -64 -134 -71 -49 -6 -50 -5 -33 43 9
27 9 37 -5 57 -22 35 -60 224 -41 204 4 -4 39 23 78 60 39 36 86 73 104 81 31
15 43 32 21 32 -21 0 -56 -24 -131 -91 l-76 -69 5 83 c3 45 7 84 9 86 2 2 14
-3 26 -11 35 -23 88 -33 88 -16 0 8 21 31 46 52 25 21 52 53 61 70 l15 33 34
-35 c18 -19 31 -38 28 -43z"/>
<path d="M420 2366 c0 -118 -9 -145 -40 -126 -19 12 -30 12 -30 1 0 -5 8 -12
18 -15 10 -3 26 -20 36 -37 15 -25 17 -42 11 -87 -8 -64 -4 -64 28 -1 21 41
24 44 61 43 30 -1 46 -8 64 -29 33 -38 38 -24 13 34 -29 69 -28 125 4 157 14
14 25 27 25 29 0 3 -15 5 -34 5 -52 0 -85 16 -97 47 -21 55 -42 93 -51 93 -4
0 -8 -51 -8 -114z m98 -35 l39 -11 -10 -39 c-7 -27 -8 -53 -1 -83 l10 -44 -38
10 c-27 7 -44 7 -56 -1 -15 -9 -21 -5 -39 28 -15 28 -18 39 -8 39 18 0 25 33
25 120 l0 75 19 -42 c16 -34 26 -44 59 -52z"/>
<path d="M1216 2189 c-9 -48 2 -76 36 -88 30 -11 31 -12 25 -66 -6 -59 2 -69
27 -33 17 24 22 63 7 54 -5 -3 -11 7 -14 23 -4 21 -15 32 -38 40 -31 11 -32
12 -26 56 7 50 -7 62 -17 14z"/>
<path d="M1387 1880 c3 -11 14 -25 24 -31 17 -9 18 -12 4 -33 -9 -13 -18 -46
-22 -74 -5 -45 -9 -52 -32 -57 -47 -10 -91 -43 -85 -62 35 -107 80 -167 141
-187 60 -21 102 -20 155 1 75 30 115 85 120 163 l3 55 -47 14 c-46 14 -48 16
-48 53 0 28 4 38 16 38 11 0 14 6 8 23 -14 48 -65 78 -141 82 -32 2 -62 10
-72 19 -24 21 -30 20 -24 -4z m152 -76 c21 -26 28 -79 13 -99 -4 -6 -32 -9
-64 -7 -57 4 -58 5 -58 33 0 16 7 45 14 64 12 29 20 35 45 35 20 0 36 -8 50
-26z m-21 -140 c-11 -11 -25 -14 -42 -10 -40 10 -31 26 16 26 39 0 41 -1 26
-16z m-128 -17 c0 -13 7 -44 15 -68 18 -52 55 -79 107 -79 50 0 71 28 76 100
5 65 12 71 66 50 24 -9 26 -13 20 -52 -14 -95 -86 -158 -179 -158 -78 0 -127
34 -169 117 -34 68 -33 81 7 98 45 20 57 18 57 -8z"/>
<path d="M824 1866 c-10 -27 1 -50 26 -56 15 -4 20 -9 13 -13 -6 -4 -14 -24
-18 -46 -6 -38 -7 -38 -57 -44 -28 -4 -53 -9 -56 -12 -13 -13 43 -147 77 -186
78 -92 196 -105 275 -31 32 30 65 95 66 128 0 24 36 39 64 28 9 -3 16 -1 16 5
0 7 -20 11 -49 11 -28 0 -52 4 -55 9 -3 4 -25 14 -50 21 -39 11 -45 16 -54 49
-7 31 -6 40 7 49 14 9 14 13 -7 34 -20 20 -32 23 -95 23 -78 0 -99 7 -90 30 3
8 2 15 -1 15 -4 0 -9 -6 -12 -14z m148 -79 c4 -7 8 -29 8 -51 0 -31 -3 -37
-16 -32 -9 3 -31 6 -50 6 -31 0 -34 3 -34 30 0 42 28 73 60 65 14 -4 28 -12
32 -18z m-128 -134 c20 -115 59 -173 116 -173 45 0 64 32 68 116 l4 74 27 -7
c69 -16 74 -21 68 -63 -6 -49 -52 -114 -95 -134 -97 -47 -204 13 -258 143 -28
71 -24 81 32 81 29 0 32 -3 38 -37z m124 25 c-3 -7 -17 -13 -33 -13 -16 0 -30
6 -32 13 -3 8 7 12 32 12 25 0 35 -4 33 -12z"/>
<path d="M1175 1470 c-4 -6 12 -10 40 -10 28 0 44 4 40 10 -3 6 -21 10 -40 10
-19 0 -37 -4 -40 -10z"/>
<path d="M1158 1388 c-27 -5 -48 -16 -48 -22 0 -7 12 -29 28 -49 49 -64 164
-76 209 -21 24 31 36 75 23 88 -13 14 -158 16 -212 4z m186 -14 c23 -9 20 -19
-15 -59 -26 -29 -38 -35 -71 -35 -45 0 -93 22 -108 49 -16 30 -12 39 18 44 45
7 159 7 176 1z"/>
</g>
</svg>
